<svg xmlns="http://www.w3.org/2000/svg" x="0px" y="0px"
width="24" height="24"
viewBox="0 0 172 172"
style=" fill:#000000;"><g fill="none" fill-rule="nonzero" stroke="none" stroke-width="1" stroke-linecap="butt" stroke-linejoin="miter" stroke-miterlimit="10" stroke-dasharray="" stroke-dashoffset="0" font-family="none" font-weight="none" font-size="none" text-anchor="none" style="mix-blend-mode: normal"><path d="M0,172v-172h172v172z" fill="none"></path><g fill="#cccccc"><path d="M114.52669,50.09668c-1.86189,0.05548 -3.62905,0.83363 -4.92708,2.1696l-27.50489,27.50488c-1.87212,1.79754 -2.62622,4.46672 -1.97148,6.97816c0.65474,2.51144 2.61601,4.47271 5.12745,5.12745c2.51144,0.65474 5.18061,-0.09936 6.97816,-1.97148l27.50488,-27.50488c2.11962,-2.06035 2.75694,-5.21064 1.60486,-7.93287c-1.15207,-2.72224 -3.85719,-4.45797 -6.81189,-4.37084zM157.52669,50.09668c-1.86189,0.05548 -3.62905,0.83363 -4.92708,2.1696l-66.59961,66.59961l-23.59961,-23.59961c-1.79752,-1.8722 -4.46674,-2.62637 -6.97823,-1.97165c-2.51149,0.65473 -4.4728,2.61604 -5.12753,5.12753c-0.65473,2.51149 0.09944,5.18071 1.97164,6.97823l28.66667,28.66667c2.7988,2.79764 7.33531,2.79764 10.13411,0l71.66667,-71.66667c2.11962,-2.06035 2.75694,-5.21064 1.60486,-7.93287c-1.15207,-2.72224 -3.85719,-4.45797 -6.81189,-4.37084zM14.26335,93.09668c-2.91628,0.00077 -5.54133,1.76841 -6.63871,4.47035c-1.09737,2.70194 -0.44825,5.79937 1.64164,7.83336l23.30566,23.31967c1.81265,1.81347 4.45518,2.52196 6.93191,1.85852c2.47673,-0.66344 4.41128,-2.59798 5.07472,-5.07472c0.66344,-2.47673 -0.04505,-5.11927 -1.85852,-6.93191l-23.31966,-23.30566c-1.34928,-1.38699 -3.20203,-2.16949 -5.13704,-2.1696z"></path></g></g></svg>